<?xml version="1.0" standalone="no"?>
<!DOCTYPE svg PUBLIC "-//W3C//DTD SVG 20010904//EN"
 "http://www.w3.org/TR/2001/REC-SVG-20010904/DTD/svg10.dtd">
<svg version="1.0" xmlns="http://www.w3.org/2000/svg"
 width="351.000000pt" height="321.000000pt" viewBox="0 0 351.000000 321.000000"
 preserveAspectRatio="xMidYMid meet">

<g transform="translate(0.000000,321.000000) scale(0.100000,-0.100000)"
fill="#000000" stroke="none">
<path d="M773 2855 c-156 -42 -275 -153 -335 -311 l-23 -59 0 -845 0 -845 23
-59 c60 -158 171 -262 331 -310 48 -14 155 -16 941 -16 786 0 893 2 941 16
160 48 271 152 331 310 l23 59 0 845 0 845 -23 59 c-60 160 -180 270 -339 311
-83 22 -1790 21 -1870 0z m1417 -253 c0 -4 -26 -27 -58 -49 -92 -65 -110 -111
-118 -295 -6 -137 -8 -148 -29 -168 -19 -17 -30 -21 -52 -15 -27 7 -27 7 -6
16 24 9 43 38 43 67 0 10 -20 47 -45 83 -43 61 -45 67 -45 137 l0 72 -54 0
c-73 0 -80 11 -49 87 l25 62 126 4 c70 1 157 4 195 5 37 1 67 -2 67 -6z m-661
-265 c26 -43 56 -56 112 -51 42 5 45 3 77 -39 17 -24 32 -47 32 -50 0 -4 -43
-7 -95 -7 -82 0 -98 -3 -115 -20 -43 -43 -120 -14 -120 46 0 32 65 154 82 154
3 0 16 -15 27 -33z m1269 -707 c47 -21 62 -48 62 -111 l0 -39 -75 0 -75 0 0
33 c0 40 -8 51 -27 36 -35 -30 -8 -73 77 -121 25 -15 58 -40 75 -58 27 -28 30
-39 33 -109 3 -48 -1 -87 -8 -101 -30 -56 -173 -78 -257 -41 -51 24 -73 63
-73 131 l0 50 74 0 75 0 3 -52 c2 -39 7 -53 18 -53 16 0 26 71 13 91 -5 6 -40
32 -80 57 -92 59 -108 83 -108 162 0 105 45 144 165 144 43 1 79 -6 108 -19z
m-1964 -17 c3 -16 21 -125 41 -243 19 -118 37 -225 39 -237 3 -22 1 -23 -75
-23 l-79 0 0 50 c0 48 -1 50 -29 50 -27 0 -29 -3 -35 -50 l-7 -50 -80 0 c-77
0 -79 1 -74 23 4 20 75 493 75 503 0 2 49 4 109 4 l109 0 6 -27z m376 -28 l0
-55 -45 0 -45 0 0 -210 0 -210 -80 0 -80 0 0 210 0 210 -45 0 -45 0 0 55 0 55
170 0 170 0 0 -55z m303 44 c25 -7 45 -21 58 -42 18 -30 19 -47 17 -229 -4
-257 8 -242 -198 -246 l-150 -3 0 265 0 266 118 0 c64 0 134 -5 155 -11z m391
-16 c3 -16 21 -125 41 -243 19 -118 37 -225 39 -237 3 -22 1 -23 -75 -23 l-79
0 0 50 c0 48 -1 50 -29 50 -27 0 -29 -3 -35 -50 l-7 -50 -80 0 c-77 0 -79 1
-74 23 4 20 75 493 75 503 0 2 49 4 109 4 l109 0 6 -27z m310 -20 c4 -27 12
-75 19 -108 l11 -60 16 105 15 105 103 3 102 3 0 -266 0 -265 -70 0 -70 0 0
114 c0 63 -4 117 -8 120 -5 3 -14 -43 -21 -102 -8 -59 -16 -113 -18 -119 -3
-8 -24 -13 -53 -13 l-49 0 -7 58 c-4 31 -12 93 -19 137 l-13 80 -1 -122 c0
-67 -4 -128 -7 -137 -5 -12 -21 -16 -70 -16 l-64 0 0 265 0 265 99 0 99 0 6
-47z"/>
<path d="M712 1414 c-16 -118 -16 -114 13 -114 23 0 25 3 20 38 -4 20 -9 66
-13 102 l-7 65 -13 -91z"/>
<path d="M1390 1374 c0 -157 2 -175 16 -170 9 3 18 6 20 6 2 0 4 74 4 164 0
140 -2 165 -16 170 -9 3 -18 6 -20 6 -2 0 -4 -79 -4 -176z"/>
<path d="M1782 1414 c-16 -118 -16 -114 13 -114 23 0 25 3 20 38 -4 20 -9 66
-13 102 l-7 65 -13 -91z"/>
</g>
</svg>
